<?xml version="1.0" encoding="UTF-8"?>
<svg id="Layer_1" data-name="Layer 1" xmlns="http://www.w3.org/2000/svg" version="1.1" viewBox="0 0 512 512">
  <defs>
    <style>
      .cls-1 {
        fill: blue;
      }

      .cls-1, .cls-2 {
        stroke-width: 8px;
      }

      .cls-2 {
        fill: #fff;
      }
    </style>
  </defs>
  <path class="cls-2" d="M509,3v506H3V3h506M512,0H0v512h512V0h0Z"/>
  <g>
    <polygon class="cls-1" points="47.7 218.6 0 136.2 2.7 134.7 48.8 214.5 128.7 168.4 130.2 171 47.7 218.6"/>
    <g>
      <path class="cls-1" d="M256,468.6c-101.3,0-189-72.1-208.6-171.4l2.9-.6c19.2,97.9,105.7,168.9,205.6,168.9s186.4-71,205.6-168.9l2.9.6c-19.5,99.3-107.2,171.4-208.6,171.4Z"/>
      <path class="cls-1" d="M461.6,215.3c-19.2-97.9-105.7-168.9-205.6-168.9S69.6,117.5,50.4,215.3l-2.9-.6c19.5-99.3,107.2-171.4,208.6-171.4s189,72.1,208.6,171.4l-2.9.6Z"/>
    </g>
    <polygon class="cls-1" points="509.2 376.9 463.1 297 383.2 343.1 381.7 340.5 464.2 292.9 511.8 375.4 509.2 376.9"/>
  </g>
</svg>