<?xml version="1.0" encoding="UTF-8"?>
<svg id="Layer_1" data-name="Layer 1" xmlns="http://www.w3.org/2000/svg" viewBox="0 0 512 512">
  <defs>
    <style>
      .cls-1 {
        fill: blue;
        stroke-width: 8px;
      }
    </style>
  </defs>
  <path class="cls-1" d="M509,3v506H3V3h506M512,0H0v512h512V0h0Z"/>
  <path class="cls-1" d="M256,67c25.52,0,50.27,5,73.57,14.85,22.51,9.52,42.72,23.15,60.08,40.51,17.36,17.36,30.99,37.57,40.51,60.08,9.85,23.3,14.85,48.05,14.85,73.57s-5,50.27-14.85,73.57c-9.52,22.51-23.15,42.72-40.51,60.08-17.36,17.36-37.57,30.99-60.08,40.51-23.3,9.85-48.05,14.85-73.57,14.85s-50.27-5-73.57-14.85c-22.51-9.52-42.72-23.15-60.08-40.51-17.36-17.36-30.99-37.57-40.51-60.08-9.85-23.3-14.85-48.05-14.85-73.57s5-50.27,14.85-73.57c9.52-22.51,23.15-42.72,40.51-60.08s37.57-30.99,60.08-40.51c23.3-9.85,48.05-14.85,73.57-14.85M256,64c-106.04,0-192,85.96-192,192s85.96,192,192,192,192-85.96,192-192-85.96-192-192-192h0Z"/>
</svg>