<?xml version="1.0" encoding="UTF-8"?>
<svg xmlns="http://www.w3.org/2000/svg" version="1.1" viewBox="0 0 512 512">
  <defs>
    <style>
      .cls-1 {
        fill: blue;
      }
    </style>
  </defs>
  <!-- Generator: Adobe Illustrator 28.6.0, SVG Export Plug-In . SVG Version: 1.2.0 Build 709)  -->
  <g>
    <g id="Layer_2">
      <g>
        <path class="cls-1" d="M256,453c108.6,0,197-88.4,197-197S364.6,59,256,59,59,147.4,59,256s88.4,197,197,197ZM256,69c103.1,0,187,83.9,187,187s-83.9,187-187,187-187-83.9-187-187,83.9-187,187-187Z"/>
        <path class="cls-1" d="M0,0v512h512V0H0ZM502,502H10V10h492v492Z"/>
      </g>
      <path class="cls-1" d="M4.4,4.4v503.3h503.3V4.4H4.4ZM497.8,497.8H14.2V14.2h483.6v483.6Z"/>
    </g>
  </g>
</svg>